<svg id="Layer_1" xmlns="http://www.w3.org/2000/svg" viewBox="0 120 512 280" height="30"><style>.st0{fill:#FFF296;stroke:#000000;stroke-width:6;stroke-miterlimit:10;} .st1{fill:#050505;} .st2{fill:#FF99CC;stroke:#000000;stroke-width:12;stroke-miterlimit:10;} .st3{fill:#F5849F;} .st4{fill:#C4D3D9;stroke:#000000;stroke-width:8;stroke-miterlimit:10;} .st5{fill:#748993;stroke:#000000;stroke-width:5;stroke-miterlimit:10;}</style><path class="st0" d="M458.2 326.4H69.5c-10.8 0-19.5 8.7-19.5 19.4s8.7 19.5 19.5 19.5h388.8c10.8 0 19.5-8.7 19.5-19.5s-8.8-19.4-19.6-19.4z"/><path class="st1" d="M276.7 361.6c-4.3-.4-33.8 3.6-31.8 3.6h160.9c43.5 0 37.1-1.6 37.1-3.6m-39.2.4h-8.1v-19.5c0-2-1.6-3.6-3.6-3.6s-3.6 1.6-3.6 3.6V362h-9v-12.7c0-2-1.6-3.6-3.6-3.6s-3.6 1.6-3.6 3.6V362h-8.6v-19.5c0-2-1.6-3.6-3.6-3.6s-3.6 1.6-3.6 3.6V362h-9v-12.7c0-2-1.6-3.6-3.6-3.6s-3.6 1.6-3.6 3.6V362h-9v-19.5c0-2-1.6-3.6-3.6-3.6s-3.6 1.6-3.6 3.6V362h-8.6v-12.7c0-2-1.6-3.6-3.6-3.6s-3.6 1.6-3.6 3.6V362h-9v-19.5c0-2-1.6-3.6-3.6-3.6s-3.6 1.6-3.6 3.6V362h-7.7m152.8 0h-7.3v-19.5c0-2-1.6-3.6-3.6-3.6s-3.6 1.6-3.6 3.6V362h-9v-12.7c0-2-1.6-3.6-3.6-3.6s-3.6 1.6-3.6 3.6V362H397"/><path class="st2" d="M166.6 131.9H69.5c-10.8 0-19.5 8.8-19.5 19.5v194.4c0 10.8 8.7 19.5 19.5 19.5h194.4c10.8 0 19.5-8.7 19.5-19.5v-97.1c-.1-64.4-52.5-116.8-116.8-116.8z"/><path class="st3" d="M166.6 137.9v221.2h93c10.3 0 18.6-2.2 18.6-18.6v-90.9c0-61.6-50.1-111.7-111.6-111.7z"/><path class="st4" d="M166.6 268.1c-5.1 0-10.1-2.1-13.7-5.7-3.6-3.6-5.7-8.6-5.7-13.8 0-5.1 2.1-10.1 5.7-13.8 3.6-3.6 8.6-5.7 13.7-5.7s10.1 2.1 13.8 5.7c3.6 3.6 5.7 8.6 5.7 13.8 0 5.1-2.1 10.1-5.7 13.8-3.6 3.6-8.6 5.7-13.8 5.7z"/><path class="st5" d="M458.2 326.4c-10.8 0-19.5 8.7-19.5 19.5v25.9c0 10.8 8.7 19.5 19.5 19.5s19.5-8.7 19.5-19.5v-25.9c-.1-10.8-8.7-19.5-19.5-19.5z"/></svg>