<?xml version="1.0" encoding="utf-8"?><svg id="Layer_1" xmlns="http://www.w3.org/2000/svg" viewBox="39 25 309.8 309.8"><style>.st0{fill:#E1E4E5;} .st1{fill:#FF9811;} .st2{fill:#EA348B;} .st3{fill:#AF2768;} .st4{fill:#CCF8F3;} .st5{fill:#00D7DF;} .st6{fill:#003638;} .st7{fill:#006C70;} .st8{fill:#00A0A6;}</style><circle class="st0" cx="193.9" cy="179.9" r="154.9"/><g id="XMLID_1555_"><path id="XMLID_1556_" class="st1" d="M146.5 207.6h12.9v96.8h-12.9z"/><path id="XMLID_34_" class="st1" d="M146.5 304.3v-12.9h12.9l25.8 12.9z"/><path id="XMLID_33_" class="st2" d="M281.2 93s2.1 11.6-4.6 18.2c-6.6 6.6-18.2 4.6-18.2 4.6s-2.3-11.4 4.6-18.2c6.8-6.9 18.2-4.6 18.2-4.6z"/><path id="XMLID_1557_" class="st2" d="M288 186.2c0 16-13 29-29 29s-29-13-29-29c0-23.2 29-69.7 29-69.7s29 46.5 29 69.7z"/><path id="XMLID_1558_" class="st3" d="M259 215.2c-16 0-29-13-29-29 0-23.2 29-69.7 29-69.7v98.7z"/><path id="XMLID_1559_" class="st1" d="M210.6 86.2l64.5 38.7-77.4-19.4z"/><ellipse id="XMLID_1560_" class="st4" cx="184.8" cy="92.1" rx="32.3" ry="26.4"/><ellipse id="XMLID_28_" transform="rotate(-12.35 152.907 184.33)" class="st4" cx="152.9" cy="184.3" rx="64.5" ry="35.5"/><path id="XMLID_1561_" class="st5" d="M153 148.3c-2.5.4-5.1.8-7.6 1.4-34.8 7.6-59.6 29.3-55.4 48.4 3.9 17.7 31.3 27.1 63.1 22.3v-72.1z"/><g id="XMLID_1562_"><path id="XMLID_1563_" class="st4" d="M206.7 184.9c-5.3 0-9.7-4.3-9.7-9.7 0-13.4-11-26.7-21.6-39.7-11.3-13.7-22.9-28-22.9-44.3 0-5.3 4.3-9.7 9.7-9.7s9.7 4.3 9.7 9.7c0 9.4 9 20.4 18.6 32 12.2 14.8 26 31.6 26 51.9-.1 5.5-4.4 9.8-9.8 9.8z"/></g><circle id="XMLID_1564_" class="st6" cx="191.2" cy="92.6" r="4.8"/><circle id="XMLID_1565_" class="st1" cx="153" cy="256" r="9.7"/><path id="XMLID_1566_" class="st7" d="M152.9 203.8c-19.9-5.5-36.8-19.1-46.7-36.9-15 10-26.1 31.9-24 42.5 2 10.4 37.7 16.3 70.7 11v-16.6z"/><path id="XMLID_1567_" class="st8" d="M172.5 206.4c-6.8 0-13.3-.9-19.6-2.7v16.6c2.5-.4 5.1-.9 7.6-1.4 16.2-3.5 30.2-10.2 40.2-18.1-8.7 3.7-18.3 5.6-28.2 5.6z"/></g></svg>